<svg width="28" height="27" viewBox="0 0 28 27" fill="none" xmlns="http://www.w3.org/2000/svg">
    <path d="M22.7051 9.18584C19.4485 9.18584 16.2272 11.823 15.537 15.0796H16.5281C16.5989 14.6903 16.9883 14.3894 17.3777 14.3894C17.8024 14.3894 18.0325 14.6903 17.944 15.0796L17.4662 17.3274L16.2095 23.2035C12.7051 22.5487 10.7405 18.354 11.8555 13.2566C13.0414 7.68141 17.36 3.18584 21.5193 3.18584C23.1122 3.18584 24.4927 3.71681 25.5547 4.69026L27.0237 3.46903C24.8998 1.34513 21.8024 0 18.0148 0C10.0325 0 2.33342 5.9469 0.775896 13.2389C-0.817024 20.531 4.43961 26.4425 12.4219 26.4425C16.829 26.4425 21.183 25.7522 25.3423 24.531L26.1564 20.7788L27.3777 15.0796C28.0679 11.823 25.9617 9.18584 22.7051 9.18584Z" fill="#644997"/>
</svg>
    